<svg width="28" height="28" viewBox="0 0 28 28" fill="none" xmlns="http://www.w3.org/2000/svg">
<path d="M13.61 6.90643L14.2566 7.79447L14.9033 6.90647C16.0538 5.32684 17.9079 4.3 20.0036 4.3C23.4886 4.3 26.3141 7.12561 26.3141 10.6097C26.3141 11.9866 25.6219 13.5761 24.4499 15.249C23.2903 16.9043 21.7286 18.5462 20.1429 20.0094C18.5608 21.4692 16.9754 22.7322 15.7838 23.6312C15.1886 24.0802 14.6932 24.4373 14.3476 24.6815C14.3132 24.7058 14.2804 24.7289 14.249 24.7509C14.2193 24.7307 14.1883 24.7095 14.1559 24.6873C13.8107 24.4513 13.3159 24.1053 12.7213 23.6687C11.5309 22.7945 9.9472 21.5614 8.36693 20.1223C6.78305 18.6799 5.22366 17.0495 4.0658 15.3827C2.89824 13.7019 2.1999 12.0709 2.1999 10.6097C2.1999 8.34878 2.92963 6.80284 4.01983 5.81454C5.12328 4.81423 6.69051 4.3 8.50964 4.3C10.6059 4.3 12.4597 5.32684 13.61 6.90643Z" stroke="black" stroke-width="1.6"/>
</svg>
