<svg width="17" height="17" viewBox="0 0 17 17" fill="none" xmlns="http://www.w3.org/2000/svg">
<g clip-path="url(#clip0)">
<path d="M3.54753 16.6188H13.2142C14.9602 16.6188 16.3809 15.1981 16.3809 13.4521V3.78544C16.3809 2.03944 14.9602 0.618774 13.2142 0.618774H3.54753C1.80153 0.618774 0.380859 2.03944 0.380859 3.78544V13.4521C0.380859 15.1981 1.80153 16.6188 3.54753 16.6188ZM1.38086 3.78544C1.38086 2.59077 2.35286 1.61877 3.54753 1.61877H13.2142C14.4089 1.61877 15.3809 2.59077 15.3809 3.78544V13.4521C15.3809 14.6468 14.4089 15.6188 13.2142 15.6188H3.54753C2.35286 15.6188 1.38086 14.6468 1.38086 13.4521V3.78544Z" fill="white"/>
<path d="M8.3811 12.7057C10.6344 12.7057 12.4678 10.8723 12.4678 8.61902C12.4678 6.36568 10.6344 4.53235 8.3811 4.53235C6.12777 4.53235 4.29443 6.36568 4.29443 8.61902C4.29443 10.8723 6.12777 12.7057 8.3811 12.7057ZM8.3811 5.53235C10.0831 5.53235 11.4678 6.91702 11.4678 8.61902C11.4678 10.321 10.0831 11.7057 8.3811 11.7057C6.6791 11.7057 5.29443 10.321 5.29443 8.61902C5.29443 6.91702 6.6791 5.53235 8.3811 5.53235Z" fill="white"/>
<path d="M12.6198 5.52697C13.2771 5.52697 13.7724 5.03363 13.7724 4.37963C13.7724 3.69763 13.2511 3.2323 12.6204 3.2323C11.9631 3.2323 11.4678 3.72563 11.4678 4.37963C11.4678 5.0603 11.9864 5.52697 12.6198 5.52697ZM12.7378 4.26963C12.9484 4.45563 12.4678 4.68163 12.4678 4.3803C12.4678 4.2003 12.7124 4.24697 12.7378 4.26963Z" fill="white"/>
</g>
<defs>
<clipPath id="clip0">
<rect width="16" height="16" fill="white" transform="translate(0.380859 0.618774)"/>
</clipPath>
</defs>
</svg>
