<svg width="20" height="20" viewBox="0 0 20 20" fill="none" xmlns="http://www.w3.org/2000/svg">
<path d="M16.5141 3.97278H3.45293C2.32601 3.97316 1.41262 4.88668 1.41211 6.01359V13.6339C1.41262 14.7608 2.32601 15.6744 3.45293 15.6747H16.5141C17.6411 15.6744 18.5545 14.7608 18.555 13.6339V6.01359C18.5545 4.88668 17.6411 3.97316 16.5141 3.97278ZM3.45293 4.7891H16.5141C17.102 4.79064 17.6065 5.20785 17.7182 5.7849L9.98354 10.0952L2.24884 5.7849C2.36058 5.20785 2.86504 4.79064 3.45293 4.7891ZM16.5141 14.8544H3.45293C2.77754 14.8524 2.23035 14.3053 2.22844 13.6299V6.70747L9.78354 10.9196C9.84476 10.9533 9.91351 10.9716 9.98354 10.9728C10.0538 10.9735 10.1228 10.9552 10.1835 10.9196L17.7386 6.70747V13.6299C17.7381 14.3059 17.1902 14.8538 16.5141 14.8544Z" fill="white"/>
</svg>
