<svg width="195" height="51" viewBox="0 0 195 51" fill="none" xmlns="http://www.w3.org/2000/svg">
<path opacity="0.4" d="M0 4C0 1.79086 1.79086 0 4 0H191C193.209 0 195 1.79086 195 4V38C195 40.2091 193.209 42 191 42H107.767C107.273 42 106.797 42.1829 106.43 42.5134L98.3379 49.7959C97.5773 50.4804 96.4227 50.4804 95.6621 49.7959L87.5705 42.5134C87.2032 42.1829 86.7266 42 86.2325 42H4C1.79086 42 0 40.2091 0 38V4Z" fill="black"/>
<path d="M17.032 26.872H16.204V24.196H16.996C17.516 23.468 17.888 22.616 18.112 21.64C18.344 20.648 18.46 19.304 18.46 17.608V16.6H23.644V24.196H24.916V26.872H24.088V25H17.032V26.872ZM17.992 24.196H22.756V17.404H19.336V17.968C19.336 20.832 18.888 22.908 17.992 24.196ZM27.3564 17.704C28.1644 16.872 29.1724 16.456 30.3804 16.456C31.5804 16.456 32.5844 16.872 33.3924 17.704C34.2004 18.536 34.6044 19.568 34.6044 20.8C34.6044 22.04 34.2004 23.076 33.3924 23.908C32.5924 24.732 31.5884 25.144 30.3804 25.144C29.1644 25.144 28.1564 24.732 27.3564 23.908C26.5564 23.084 26.1564 22.048 26.1564 20.8C26.1564 19.56 26.5564 18.528 27.3564 17.704ZM28.0164 23.308C28.6484 23.98 29.4364 24.316 30.3804 24.316C31.3244 24.316 32.1124 23.98 32.7444 23.308C33.3844 22.628 33.7044 21.792 33.7044 20.8C33.7044 19.808 33.3844 18.972 32.7444 18.292C32.1124 17.62 31.3244 17.284 30.3804 17.284C29.4364 17.284 28.6484 17.62 28.0164 18.292C27.3764 18.972 27.0564 19.808 27.0564 20.8C27.0564 21.792 27.3764 22.628 28.0164 23.308ZM40.0731 25H36.6411V16.6H42.3771V17.404H37.5291V19.78H40.0731C41.0091 19.78 41.7371 20.02 42.2571 20.5C42.7851 20.98 43.0491 21.612 43.0491 22.396C43.0491 23.188 42.7851 23.82 42.2571 24.292C41.7291 24.764 41.0011 25 40.0731 25ZM37.5291 20.584V24.196H39.9891C40.6771 24.196 41.2091 24.04 41.5851 23.728C41.9691 23.408 42.1611 22.96 42.1611 22.384C42.1611 21.816 41.9691 21.376 41.5851 21.064C41.2091 20.744 40.6771 20.584 39.9891 20.584H37.5291ZM45.1043 25H44.1803L47.9243 16.552H48.7523L52.5083 25H51.5723L50.5283 22.684H46.1243L45.1043 25ZM48.3323 17.668L46.4243 21.904H50.2403L48.3323 17.668ZM58.0515 25H54.0435V16.6H57.6795C58.4235 16.6 59.0115 16.784 59.4435 17.152C59.8755 17.512 60.0915 18.008 60.0915 18.64C60.0915 19.072 59.9915 19.444 59.7915 19.756C59.5995 20.068 59.3315 20.288 58.9875 20.416C59.5475 20.504 59.9915 20.748 60.3195 21.148C60.6475 21.548 60.8115 22.052 60.8115 22.66C60.8115 23.372 60.5635 23.94 60.0675 24.364C59.5715 24.788 58.8995 25 58.0515 25ZM54.9315 20.932V24.196H57.8955C58.5195 24.196 59.0035 24.052 59.3475 23.764C59.6915 23.476 59.8635 23.072 59.8635 22.552C59.8635 22.04 59.6915 21.644 59.3475 21.364C59.0035 21.076 58.5195 20.932 57.8955 20.932H54.9315ZM54.9315 17.404V20.152H57.5355C58.0715 20.152 58.4835 20.036 58.7715 19.804C59.0675 19.572 59.2155 19.236 59.2155 18.796C59.2155 18.348 59.0675 18.004 58.7715 17.764C58.4835 17.524 58.0715 17.404 57.5355 17.404H54.9315ZM63.4945 25H62.7505V16.6H63.6265V23.512L68.8465 16.6H69.6265V25H68.7505V18.064L63.4945 25ZM75.0089 25H74.1209V17.404H71.2289V16.6H77.9369V17.404H75.0089V25ZM82.9395 25H79.5435V16.6H80.4315V19.732H82.9395C83.8915 19.732 84.6275 19.976 85.1475 20.464C85.6835 20.952 85.9515 21.588 85.9515 22.372C85.9515 23.172 85.6835 23.812 85.1475 24.292C84.6115 24.764 83.8755 25 82.9395 25ZM80.4315 20.536V24.196H82.8795C83.5675 24.196 84.1035 24.04 84.4875 23.728C84.8715 23.408 85.0635 22.956 85.0635 22.372C85.0635 21.788 84.8715 21.336 84.4875 21.016C84.1115 20.696 83.5755 20.536 82.8795 20.536H80.4315ZM94.8835 25H90.8755V16.6H94.5115C95.2555 16.6 95.8435 16.784 96.2755 17.152C96.7075 17.512 96.9235 18.008 96.9235 18.64C96.9235 19.072 96.8235 19.444 96.6235 19.756C96.4315 20.068 96.1635 20.288 95.8195 20.416C96.3795 20.504 96.8235 20.748 97.1515 21.148C97.4795 21.548 97.6435 22.052 97.6435 22.66C97.6435 23.372 97.3955 23.94 96.8995 24.364C96.4035 24.788 95.7315 25 94.8835 25ZM91.7635 20.932V24.196H94.7275C95.3515 24.196 95.8355 24.052 96.1795 23.764C96.5235 23.476 96.6955 23.072 96.6955 22.552C96.6955 22.04 96.5235 21.644 96.1795 21.364C95.8355 21.076 95.3515 20.932 94.7275 20.932H91.7635ZM91.7635 17.404V20.152H94.3675C94.9035 20.152 95.3155 20.036 95.6035 19.804C95.8995 19.572 96.0475 19.236 96.0475 18.796C96.0475 18.348 95.8995 18.004 95.6035 17.764C95.3155 17.524 94.9035 17.404 94.3675 17.404H91.7635ZM103.491 25H102.747V16.6H103.623V23.512L108.843 16.6H109.623V25H108.747V18.064L103.491 25ZM114.165 25.144C113.045 25.144 112.101 24.928 111.333 24.496V23.584C112.157 24.072 113.057 24.316 114.033 24.316C114.833 24.316 115.465 24.156 115.929 23.836C116.401 23.508 116.637 23.072 116.637 22.528C116.637 22.04 116.421 21.64 115.989 21.328C115.557 21.016 114.993 20.86 114.297 20.86H113.265V20.056H114.393C114.985 20.056 115.445 19.936 115.773 19.696C116.109 19.448 116.277 19.104 116.277 18.664C116.277 18.232 116.089 17.896 115.713 17.656C115.337 17.408 114.841 17.284 114.225 17.284C113.401 17.284 112.569 17.48 111.729 17.872V17.032C112.553 16.648 113.397 16.456 114.261 16.456C115.109 16.456 115.801 16.652 116.337 17.044C116.881 17.444 117.153 17.968 117.153 18.616C117.153 19.112 117.009 19.512 116.721 19.816C116.441 20.112 116.129 20.312 115.785 20.416C116.249 20.56 116.657 20.812 117.009 21.172C117.369 21.516 117.549 21.988 117.549 22.588C117.549 23.332 117.245 23.944 116.637 24.424C116.021 24.904 115.197 25.144 114.165 25.144ZM122.925 25H119.493V16.6H125.229V17.404H120.381V19.78H122.925C123.861 19.78 124.589 20.02 125.109 20.5C125.637 20.98 125.901 21.612 125.901 22.396C125.901 23.188 125.637 23.82 125.109 24.292C124.581 24.764 123.853 25 122.925 25ZM120.381 20.584V24.196H122.841C123.529 24.196 124.061 24.04 124.437 23.728C124.821 23.408 125.013 22.96 125.013 22.384C125.013 21.816 124.821 21.376 124.437 21.064C124.061 20.744 123.529 20.584 122.841 20.584H120.381ZM128.748 25H127.86V16.6H131.388C132.22 16.6 132.876 16.812 133.356 17.236C133.836 17.66 134.076 18.224 134.076 18.928C134.076 19.648 133.836 20.224 133.356 20.656C132.876 21.08 132.22 21.292 131.388 21.292H128.748V25ZM128.748 17.404V20.488H131.328C131.92 20.488 132.38 20.356 132.708 20.092C133.036 19.82 133.2 19.44 133.2 18.952C133.2 18.456 133.036 18.076 132.708 17.812C132.388 17.54 131.928 17.404 131.328 17.404H128.748ZM135.057 25H134.133L137.877 16.552H138.705L142.461 25H141.525L140.481 22.684H136.077L135.057 25ZM138.285 17.668L136.377 21.904H140.193L138.285 17.668ZM144.885 25H143.997V16.6H144.885V20.092H149.877V16.6H150.765V25H149.877V20.896H144.885V25ZM154.014 25H153.126V16.6H154.014V20.092H159.006V16.6H159.894V25H159.006V20.896H154.014V25ZM163.106 17.704C163.914 16.872 164.922 16.456 166.13 16.456C167.33 16.456 168.334 16.872 169.142 17.704C169.95 18.536 170.354 19.568 170.354 20.8C170.354 22.04 169.95 23.076 169.142 23.908C168.342 24.732 167.338 25.144 166.13 25.144C164.914 25.144 163.906 24.732 163.106 23.908C162.306 23.084 161.906 22.048 161.906 20.8C161.906 19.56 162.306 18.528 163.106 17.704ZM163.766 23.308C164.398 23.98 165.186 24.316 166.13 24.316C167.074 24.316 167.862 23.98 168.494 23.308C169.134 22.628 169.454 21.792 169.454 20.8C169.454 19.808 169.134 18.972 168.494 18.292C167.862 17.62 167.074 17.284 166.13 17.284C165.186 17.284 164.398 17.62 163.766 18.292C163.126 18.972 162.806 19.808 162.806 20.8C162.806 21.792 163.126 22.628 163.766 23.308ZM178.331 25H172.391V16.6H178.151V17.404H173.279V20.092H177.275V20.896H173.279V24.196H178.331V25Z" fill="white"/>
</svg>
