<svg width="134" height="51" viewBox="0 0 134 51" fill="none" xmlns="http://www.w3.org/2000/svg">
<path d="M0 4C0 1.79086 1.79086 0 4 0H130C132.209 0 134 1.79086 134 4V38C134 40.2091 132.209 42 130 42H77.7675C77.2734 42 76.7968 42.1829 76.4295 42.5134L68.3379 49.7959C67.5773 50.4804 66.4227 50.4804 65.6621 49.7959L57.5705 42.5134C57.2032 42.1829 56.7266 42 56.2325 42H4C1.79086 42 0 40.2091 0 38V4Z" fill="black" fill-opacity="0.4"/>
<path d="M18.076 25H17.188V16.6H18.076V20.092H23.068V16.6H23.956V25H23.068V20.896H18.076V25ZM32.2569 25H26.3169V16.6H32.0769V17.404H27.2049V20.092H31.2009V20.896H27.2049V24.196H32.2569V25ZM37.0167 25H36.1287V17.404H33.2367V16.6H39.9447V17.404H37.0167V25ZM48.1257 25H44.1177V16.6H47.7537C48.4977 16.6 49.0857 16.784 49.5177 17.152C49.9497 17.512 50.1657 18.008 50.1657 18.64C50.1657 19.072 50.0657 19.444 49.8657 19.756C49.6737 20.068 49.4057 20.288 49.0617 20.416C49.6217 20.504 50.0657 20.748 50.3937 21.148C50.7217 21.548 50.8857 22.052 50.8857 22.66C50.8857 23.372 50.6377 23.94 50.1417 24.364C49.6457 24.788 48.9737 25 48.1257 25ZM45.0057 20.932V24.196H47.9697C48.5937 24.196 49.0777 24.052 49.4217 23.764C49.7657 23.476 49.9377 23.072 49.9377 22.552C49.9377 22.04 49.7657 21.644 49.4217 21.364C49.0777 21.076 48.5937 20.932 47.9697 20.932H45.0057ZM45.0057 17.404V20.152H47.6097C48.1457 20.152 48.5577 20.036 48.8457 19.804C49.1417 19.572 49.2897 19.236 49.2897 18.796C49.2897 18.348 49.1417 18.004 48.8457 17.764C48.5577 17.524 48.1457 17.404 47.6097 17.404H45.0057ZM56.8768 25H55.9888V16.6H56.8768V20.092H61.8688V16.6H62.7568V25H61.8688V20.896H56.8768V25ZM65.2137 25H64.2897L68.0337 16.552H68.8617L72.6177 25H71.6817L70.6377 22.684H66.2337L65.2137 25ZM68.4417 17.668L66.5337 21.904H70.3497L68.4417 17.668ZM73.1208 25V24.184C73.2008 24.2 73.3128 24.208 73.4568 24.208C73.8248 24.208 74.1168 24.08 74.3328 23.824C74.5568 23.568 74.7368 23.196 74.8728 22.708C74.9688 22.38 75.0328 22.02 75.0648 21.628C75.1128 21.18 75.1488 20.756 75.1728 20.356C75.1888 20.06 75.2048 19.572 75.2208 18.892L75.2688 16.6H80.5248V25H79.6368V17.404H76.1328L76.0728 19.324C76.0248 20.9 75.9048 22.084 75.7128 22.876C75.5448 23.596 75.2808 24.128 74.9208 24.472C74.5688 24.808 74.0808 24.988 73.4568 25.012C73.2728 25.012 73.1608 25.008 73.1208 25ZM83.6273 25H82.8833V16.6H83.7593V23.512L88.9793 16.6H89.7593V25H88.8833V18.064L83.6273 25ZM98.0457 25H97.1577V21.22C96.3737 21.516 95.5577 21.664 94.7097 21.664C93.7337 21.664 92.9977 21.46 92.5017 21.052C92.0137 20.636 91.7697 19.98 91.7697 19.084V16.6H92.6577V18.856C92.6577 19.584 92.8297 20.096 93.1737 20.392C93.5177 20.688 94.0937 20.836 94.9017 20.836C95.6537 20.836 96.4057 20.672 97.1577 20.344V16.6H98.0457V25ZM101.159 25H100.415V16.6H101.291V23.512L106.511 16.6H107.291V25H106.415V18.064L101.159 25ZM110.393 25H109.649V16.6H110.525V23.512L115.745 16.6H116.525V25H115.649V18.064L110.393 25Z" fill="white"/>
</svg>
